<svg width="23" height="22" viewBox="0 0 23 22" fill="none" xmlns="http://www.w3.org/2000/svg">
<path d="M21.6758 13.661C20.2067 19.5539 14.2381 23.1402 8.3445 21.6707C2.45336 20.2015 -1.13296 14.2326 0.336819 8.34017C1.8053 2.44661 7.77387 -1.13997 13.6657 0.329158C19.5588 1.79829 23.1449 7.76788 21.6757 13.6611L21.6758 13.661H21.6758Z" fill="#F3BA2F"/>
<path fill-rule="evenodd" clip-rule="evenodd" d="M11.0074 6.98135L8.15899 9.82974L8.15904 9.82962L6.50177 8.17229L11.0074 3.66669L15.5144 8.17364L13.8571 9.83097L11.0074 6.98135ZM5.33128 9.34241L3.67389 11L5.33116 12.6571L6.98856 10.9997L5.33128 9.34241ZM8.15883 12.1705L11.0072 15.0187L13.8569 12.1691L15.5151 13.8256L15.5143 13.8265L11.0072 18.3334L6.50161 13.8278L6.49926 13.8254L8.15883 12.1705ZM16.6834 9.34335L15.0261 11.0007L16.6834 12.658L18.3407 11.0006L16.6834 9.34335Z" fill="white"/>
<path d="M12.6884 10.9991H12.6891L11.0074 9.31738L9.76448 10.56L9.62168 10.7029L9.32718 10.9974L9.32483 10.9997L9.32718 11.0021L11.0074 12.6826L12.6892 11.0009L12.69 10.9999L12.6885 10.9991" fill="white"/>
</svg>
