<svg width="23" height="22" viewBox="0 0 23 22" fill="none" xmlns="http://www.w3.org/2000/svg">
<circle cx="11.0049" cy="11" r="11" fill="black"/>
<path d="M6.82366 13.606C6.89989 13.5298 7.0047 13.4853 7.11586 13.4853H17.1969C17.3811 13.4853 17.4732 13.7076 17.343 13.8378L15.3516 15.8293C15.2753 15.9055 15.1705 15.95 15.0594 15.95H4.97833C4.79411 15.95 4.70201 15.7276 4.83223 15.5974L6.82366 13.606Z" fill="url(#paint0_linear_1_1524)"/>
<path d="M6.82378 6.17068C6.90319 6.09445 7.008 6.04999 7.11599 6.04999H17.197C17.3812 6.04999 17.4733 6.27232 17.3431 6.40254L15.3517 8.39397C15.2755 8.4702 15.1707 8.51467 15.0595 8.51467H4.97845C4.79424 8.51467 4.70213 8.29234 4.83235 8.16212L6.82378 6.17068Z" fill="url(#paint1_linear_1_1524)"/>
<path d="M15.3516 9.86453C15.2753 9.7883 15.1705 9.74384 15.0594 9.74384H4.97833C4.79411 9.74384 4.70201 9.96616 4.83223 10.0964L6.82366 12.0878C6.89989 12.164 7.0047 12.2085 7.11586 12.2085H17.1969C17.3811 12.2085 17.4732 11.9862 17.343 11.856L15.3516 9.86453Z" fill="url(#paint2_linear_1_1524)"/>
<defs>
<linearGradient id="paint0_linear_1_1524" x1="-18.0137" y1="4.17974" x2="-18.2819" y2="17.6766" gradientUnits="userSpaceOnUse">
<stop stop-color="#00FFA3"/>
<stop offset="1" stop-color="#DC1FFF"/>
</linearGradient>
<linearGradient id="paint1_linear_1_1524" x1="-21.0642" y1="2.58705" x2="-21.3324" y2="16.0839" gradientUnits="userSpaceOnUse">
<stop stop-color="#00FFA3"/>
<stop offset="1" stop-color="#DC1FFF"/>
</linearGradient>
<linearGradient id="paint2_linear_1_1524" x1="-19.5487" y1="3.37834" x2="-19.8169" y2="16.8752" gradientUnits="userSpaceOnUse">
<stop stop-color="#00FFA3"/>
<stop offset="1" stop-color="#DC1FFF"/>
</linearGradient>
</defs>
</svg>
